<svg xmlns="http://www.w3.org/2000/svg"><symbol id="ico-add-btn" viewBox="0 0 30 30"><circle cx="15" cy="15" r="15"/><path d="M21 16h-5v5a1 1 0 0 1-2 0v-5H9a1 1 0 0 1 0-2h5V9a1 1 0 0 1 2 0v5h5a1 1 0 0 1 0 2z" fill="currentColor" fill-rule="evenodd"/></symbol><symbol id="ico-android" viewBox="0 0 25 30"><path fill="currentColor" d="M1.77 9.474A1.776 1.776 0 0 0 0 11.254v7.486a1.77 1.77 0 1 0 3.542 0v-7.485a1.776 1.776 0 0 0-1.77-1.78zm22.61 1.78a1.77 1.77 0 1 0-3.54 0v7.486a1.77 1.77 0 1 0 3.54 0v-7.485zM4.266 9.785h-.088v11.747a1.782 1.782 0 0 0 1.77 1.783H7.44v4.094a1.77 1.77 0 1 0 3.542 0v-4.094H13.4v4.094a1.77 1.77 0 1 0 3.542 0v-4.094h1.492a1.782 1.782 0 0 0 1.77-1.782V9.79H4.265zm15.925-.622v-.86a6.576 6.576 0 0 0-.11-.72 7.27 7.27 0 0 0-3.875-4.887l1.223-2.27a.29.29 0 0 0-.116-.39.286.286 0 0 0-.39.115l-1.238 2.3a8.878 8.878 0 0 0-6.98.01L7.458.152a.286.286 0 0 0-.39-.116.29.29 0 0 0-.117.392l1.23 2.28A7.31 7.31 0 0 0 4.388 7.33a6.483 6.483 0 0 0-.2 1.59c0 .08 0 .162.005.244H20.19zm-4.354-4.366a.758.758 0 1 1-.753.757.755.755 0 0 1 .753-.757zm-7.29 0a.758.758 0 1 1-.754.757.755.755 0 0 1 .753-.757z"/></symbol><symbol id="ico-apple" viewBox="0 0 25 29"><path fill="currentColor" d="M25.094 21.432a21.048 21.048 0 0 1-1.9 3.543c-1.233 1.877-2.97 4.214-5.122 4.234-1.912.016-2.4-1.247-5-1.232s-3.137 1.253-5.05 1.235c-2.152-.02-3.8-2.13-5.03-4.006-3.447-5.247-3.807-11.4-1.68-14.678a7.625 7.625 0 0 1 6.132-3.69c2.28 0 3.715 1.252 5.6 1.252 1.83 0 2.944-1.253 5.582-1.253a7.448 7.448 0 0 1 5.61 2.962 6.422 6.422 0 0 0 .858 11.63zM16.63 4.742A6.4 6.4 0 0 0 18.052 0a6.917 6.917 0 0 0-4.465 2.4 5.943 5.943 0 0 0-1.46 4.627 5.837 5.837 0 0 0 4.503-2.284z"/></symbol><symbol id="ico-attachment" viewBox="0 0 18 16"><path fill="currentColor" d="M16.284 1.794h-.002C15.185.703 13.582 0 12.195 0a5.471 5.471 0 0 0-3.878 1.593L1.282 8.578A4.3 4.3 0 0 0 0 11.653c0 1.162.455 2.254 1.28 3.074h.002A4.367 4.367 0 0 0 4.378 16h.003c1.17 0 2.27-.452 3.096-1.273l6.247-6.202c.218-.215.932-1.006.935-2.154 0-.534-.154-1.328-.903-2.072-.84-.835-1.73-.96-2.325-.92a3.111 3.111 0 0 0-1.963.913L4.38 9.34a.904.904 0 0 0 0 1.28.92.92 0 0 0 1.29 0l5.084-5.05c.228-.227.52-.368.803-.388.318-.022.624.11.91.395.246.244.37.51.37.79 0 .462-.33.808-.398.876L6.187 13.45a2.548 2.548 0 0 1-1.807.742h-.004a2.547 2.547 0 0 1-1.807-.743 2.513 2.513 0 0 1-.75-1.797c0-.68.267-1.317.75-1.797l7.034-6.984a3.649 3.649 0 0 1 2.59-1.064c.9 0 2.052.52 2.8 1.263 0 .002.002.002.002.002.73.725 1.183 1.756 1.183 2.69 0 .974-.38 1.888-1.072 2.574l-2.458 2.44a.9.9 0 0 0 0 1.278.916.916 0 0 0 1.288 0l2.457-2.44A5.378 5.378 0 0 0 18 5.765c0-1.42-.642-2.903-1.716-3.97z"/></symbol><symbol id="ico-back" viewBox="0 0 6 9"><path fill="currentColor" d="M4.56-.012l1.39 1.787L3.072 4.44l2.884 2.712-1.414 1.743L.01 4.397l4.55-4.41z" fill-rule="evenodd"/></symbol><symbol id="ico-bell" viewBox="0 0 14 16"><path fill="currentColor" d="M14 14H7.985L8 16H6l-.017-2H0v-2h2s-.056-5.704.014-6.04c.41-1.943 2.02-3.47 3.99-3.862C6.01 2.034 6 0 6 0h2s-.038 2.068.018 2.103c1.966.4 3.568 1.93 3.97 3.876C12.06 6.31 12 12 12 12h2v2zM9.966 6.032C9.563 4.85 8.318 4 7 4c-1.303 0-2.568.83-2.983 1.99C3.905 6.308 4 12 4 12h6s.07-5.664-.034-5.968z" fill-rule="evenodd"/></symbol><symbol id="ico-bones" viewBox="0 0 15 11"><path fill="currentColor" d="M14.856 7.314c.593.906-1.333 1.495-1.333 1.495s.43 1.69-.647 1.885c-1.363.247-1.796-1.242-1.662-1.848.06-.273-1.92-1.648-3.643-2.787-1.763 1.19-3.95 2.734-3.887 3.028.133.616-.296 2.13-1.644 1.88-1.065-.198-.64-1.92-.64-1.92S-.508 8.45.08 7.53c1.067-1.678 1.983-.742 2.555-.444.172.09 2.038-.796 3.76-1.65C4.65 4.6 2.795 3.783 2.6 3.96c-.476.432-2.02.83-2.476-.48-.36-1.037 1.364-1.546 1.364-1.546S1.058-.044 2.162 0c2.01.077 1.646 1.36 1.67 2.016.01.21 2.008 1.577 3.72 2.71 1.635-1.115 3.425-2.383 3.433-2.588.025-.667-.334-1.972 1.653-2.052 1.092-.044.668 1.97.668 1.97s1.705.518 1.35 1.572c-.452 1.335-1.98.93-2.45.49-.18-.168-1.767.535-3.373 1.31 1.63.782 3.28 1.532 3.44 1.45.58-.293 1.504-1.213 2.583.436z" fill-rule="evenodd"/></symbol><symbol id="ico-calendar-empty" viewBox="0 0 16 18"><path fill="currentColor" d="M14 17H2a2 2 0 0 1-2-2V3a2 2 0 0 1 2-2h1v1a1 1 0 0 0 1 1h1a1 1 0 0 0 1-1l.003-.972 3.955-.006L10 2a1 1 0 0 0 1 1h1a1 1 0 0 0 1-1V1h1a2 2 0 0 1 2 2v12a2 2 0 0 1-2 2zm0-10a1 1 0 0 0-1-1H3a1 1 0 0 0-1 1v7a1 1 0 0 0 1 1h10a1 1 0 0 0 1-1V7zm-3-7h1v2h-1V0zM4 0h1v2H4V0z" fill-rule="evenodd"/></symbol><symbol id="ico-calendar-stroke" viewBox="0 0 30 30"><path fill="currentColor" d="M28.5 30h-27A1.5 1.5 0 0 1 0 28.5v-24C0 3.672.67 3 1.5 3h3v-.75a2.25 2.25 0 1 1 4.5 0V3h12v-.75a2.25 2.25 0 1 1 4.5 0V3h3A1.5 1.5 0 0 1 30 4.5v24a1.5 1.5 0 0 1-1.5 1.5zM7.5 2.25c0-.413-.337-.75-.75-.75S6 1.837 6 2.25V3h1.5v-.75zm16.5 0a.75.75 0 0 0-1.5 0V3H24v-.75zm4.5 2.25h-27V9h27V4.5zm0 6h-27v18h27v-18zm-21.75 3a2.25 2.25 0 1 1 0 4.5 2.25 2.25 0 0 1 0-4.5zm0 3a.75.75 0 0 0 0-1.5.75.75 0 0 0 0 1.5zm0 4.5a2.25 2.25 0 1 1 0 4.5 2.25 2.25 0 0 1 0-4.5zm0 3c.413 0 .75-.337.75-.75s-.337-.75-.75-.75-.75.337-.75.75.337.75.75.75zM15 13.5a2.25 2.25 0 1 1 0 4.5 2.25 2.25 0 0 1 0-4.5zm0 3a.75.75 0 1 0 0-1.5.75.75 0 0 0 0 1.5zm0 4.5a2.25 2.25 0 1 1 0 4.5 2.25 2.25 0 0 1 0-4.5zm0 3a.75.75 0 0 0 0-1.5c-.413 0-.75.337-.75.75s.337.75.75.75zm8.25-10.5a2.25 2.25 0 1 1 0 4.5 2.25 2.25 0 0 1 0-4.5zm0 3a.75.75 0 0 0 0-1.5.75.75 0 0 0 0 1.5zm0 4.5a2.25 2.25 0 1 1 0 4.5 2.25 2.25 0 0 1 0-4.5zm0 3c.413 0 .75-.337.75-.75s-.337-.75-.75-.75a.75.75 0 0 0 0 1.5z" fill-rule="evenodd"/></symbol><symbol id="ico-calendar" viewBox="0 0 16 18"><path fill="currentColor" d="M14 17H2a2 2 0 0 1-2-2V3a2 2 0 0 1 2-2l1 .015V2a1 1 0 0 0 1 1h1a1 1 0 0 0 1-1V.987L10 1v1a1 1 0 0 0 1 1h1a1 1 0 0 0 1-1V1h1a2 2 0 0 1 2 2v12a2 2 0 0 1-2 2zm0-10a1 1 0 0 0-1-1H3a1 1 0 0 0-1 1v7a1 1 0 0 0 1 1h10a1 1 0 0 0 1-1V7zm-4 4h2v2h-2v-2zm0-3h2v2h-2V8zm-3 3h2v2H7v-2zm0-3h2v2H7V8zm-3 3h2v2H4v-2zm0-3h2v2H4V8zm7-8h1v2h-1V0zM4 0h1v2H4V0z" fill-rule="evenodd"/></symbol><symbol id="ico-camera" viewBox="0 0 18 14"><path fill="currentColor" d="M14 14H3a3 3 0 0 1-3-3V6a3 3 0 0 1 3-3h1a3 3 0 0 1 3-3h3a3 3 0 0 1 3 3h1a3 3 0 0 1 3 3v5a3 3 0 0 1-3 3zM8.5 4a3.5 3.5 0 1 0 0 7 3.5 3.5 0 0 0 0-7zm0 6a2.5 2.5 0 0 1 0-5 2.5 2.5 0 0 1 0 5z" fill-rule="evenodd"/></symbol><symbol id="ico-chain" viewBox="0 0 16 8"><path fill="currentColor" d="M12 8c-1.477 0-2.752-.81-3.445-2H12a2 2 0 1 0 0-4H8.555C9.248.81 10.523 0 12 0c2.21 0 4 1.79 4 4s-1.79 4-4 4zM4 4.5v-1a.5.5 0 0 1 .5-.5h7a.5.5 0 0 1 .5.5v1a.5.5 0 0 1-.5.5h-7a.5.5 0 0 1-.5-.5zM2 4a2 2 0 0 0 2 2h3.445C6.752 7.19 5.477 8 4 8 1.79 8 0 6.21 0 4s1.79-4 4-4c1.477 0 2.752.81 3.445 2H4a2 2 0 0 0-2 2z" fill-rule="evenodd"/></symbol><symbol id="ico-check" viewBox="0 0 32 32"><path fill="currentColor" d="M16 32C7.163 32 0 24.836 0 16S7.163 0 16 0c8.836 0 16 7.164 16 16s-7.164 16-16 16zm7.45-20.243l-.707-.707a.5.5 0 0 0-.707 0L13.5 19.586l-4.12-4.122a.502.502 0 0 0-.708 0l-.708.708a.5.5 0 0 0 0 .707l4.657 4.656a.5.5 0 0 0 .365.142l.272.272a.5.5 0 0 0 .707 0l9.486-9.485a.502.502 0 0 0 0-.708z" fill-rule="evenodd"/></symbol><symbol id="ico-comment" viewBox="0 0 14 12"><path fill="currentColor" d="M11 9H5.75L2 12V9a2 2 0 0 1-2-2V2a2 2 0 0 1 2-2h9a2 2 0 0 1 2 2v5a2 2 0 0 1-2 2zm0-6a1 1 0 0 0-1-1H3a1 1 0 0 0-1 1v3a1 1 0 0 0 1 1h7a1 1 0 0 0 1-1V3z" fill-rule="evenodd"/></symbol><symbol id="ico-cross-bold" viewBox="0 0 12 12"><path fill="currentColor" d="M12 1.936L7.882 6.14l3.83 3.91-1.89 1.928-3.83-3.91L2.143 12 .246 10.064l3.85-3.93L0 1.95 1.89.022l4.096 4.182L10.104 0 12 1.936z" fill-rule="evenodd"/></symbol><symbol id="ico-cross-circle" viewBox="0 0 44 44"><path fill="currentColor" fill-rule="evenodd" d="M22 0A22 22 0 1 1 0 22 22 22 0 0 1 22 0zm-5.71 29.247a1.438 1.438 0 0 1-2.03 0l-.51-.507a1.433 1.433 0 0 1 0-2.027l5.18-5.2-4.89-4.937a1.434 1.434 0 0 1 0-2.028l.51-.506a1.436 1.436 0 0 1 2.03 0l4.92 5.06 4.92-5.06a1.436 1.436 0 0 1 2.03 0l.51.506a1.434 1.434 0 0 1 0 2.028l-4.89 4.882 5.18 5.253a1.433 1.433 0 0 1 0 2.028l-.51.507a1.438 1.438 0 0 1-2.03 0l-5.19-5.037z"/></symbol><symbol id="ico-cross-thin" viewBox="0 0 19 20"><path fill="currentColor" d="M18.426 17.012l-1.414 1.414-7.793-7.793-7.794 7.793-1.414-1.414L7.805 9.22.012 1.425 1.426.012 9.22 7.805 17.01.012l1.414 1.414-7.793 7.793 7.793 7.792z" fill-rule="evenodd"/></symbol><symbol id="ico-cross" viewBox="0 0 12 12"><path fill="currentColor" d="M10.426 9.012l-1.414 1.414L5.22 6.633l-3.794 3.793L.012 9.012 3.805 5.22.012 1.425 1.426.012 5.22 3.805 9.01.012l1.414 1.414L6.633 5.22l3.793 3.792z" fill-rule="evenodd"/></symbol><symbol id="ico-crowd" viewBox="0 0 28 30"><path fill="currentColor" d="M23.158 8.7c-1.97 0-3.566-1.612-3.566-3.6s1.597-3.6 3.566-3.6c1.97 0 3.566 1.612 3.566 3.6s-1.597 3.6-3.566 3.6zm0-6c-1.31 0-2.377 1.077-2.377 2.4s1.067 2.4 2.378 2.4c1.31 0 2.377-1.077 2.377-2.4s-1.066-2.4-2.377-2.4zM13.948 9C11.484 9 9.49 6.985 9.49 4.5S11.485 0 13.947 0c2.46 0 4.457 2.015 4.457 4.5S16.408 9 13.947 9zm0-7.5c-1.64 0-2.973 1.346-2.973 3s1.333 3 2.972 3c1.638 0 2.97-1.346 2.97-3s-1.332-3-2.97-3zM4.734 8.7c-1.97 0-3.566-1.612-3.566-3.6s1.596-3.6 3.565-3.6C6.705 1.5 8.3 3.112 8.3 5.1S6.706 8.7 4.736 8.7zm0-6c-1.31 0-2.377 1.077-2.377 2.4s1.066 2.4 2.377 2.4c1.31 0 2.377-1.077 2.377-2.4S6.046 2.7 4.735 2.7zM2.358 9.9h4.754c.55 0 1.012.383 1.143.914-.088.206-.162.42-.203.65l-.437 2.426-.503-2.79H5.33v3.6c0 .332-.266.6-.595.6a.597.597 0 0 1-.594-.6v-3.6H2.36l-1.19 6.6h1.86l.52 6.6h2.376L6.52 21l.892 1.5-.3 1.895A1.195 1.195 0 0 1 5.926 25.5H3.547c-.62 0-1.136-.48-1.185-1.105L1.93 18.9h-.76c-.353 0-.687-.158-.913-.43A1.212 1.212 0 0 1 0 17.485l1.19-6.6c.1-.57.594-.985 1.168-.985zm8.617.6h5.943c.718 0 1.333.52 1.462 1.232l1.485 8.25c.08.437-.038.888-.32 1.23-.283.34-.7.538-1.14.538h-.95l-.542 6.87a1.49 1.49 0 0 1-1.48 1.38H12.46c-.774 0-1.42-.6-1.48-1.38l-.54-6.87h-.95c-.44 0-.86-.197-1.14-.54-.284-.34-.4-.79-.322-1.228l1.485-8.25a1.492 1.492 0 0 1 1.462-1.232zm.836 9.75l.65 8.25h2.972l.65-8.25h2.322L16.918 12h-2.23v4.5c0 .415-.33.75-.74.75a.746.746 0 0 1-.744-.75V12h-2.23L9.49 20.25h2.32zM23.16 15.3a.597.597 0 0 1-.594-.6v-3.6H20.78l-.502 2.79-.436-2.426a3.038 3.038 0 0 0-.204-.65c.13-.53.594-.914 1.143-.914h4.755c.575 0 1.067.415 1.17.985l1.188 6.6c.063.35-.03.71-.257.984-.226.272-.56.43-.912.43h-.76l-.433 5.495a1.191 1.191 0 0 1-1.183 1.105H21.97c-.62 0-1.136-.48-1.185-1.105l-.3-1.895.89-1.5.594 3.3h2.377l.52-6.6h1.857l-1.19-6.6h-1.782v3.6c0 .332-.265.6-.594.6z" fill-rule="evenodd"/></symbol><symbol id="ico-cup" viewBox="0 0 55.562 66"><path fill="currentColor" d="M54.136 7.19c-1.34-1.55-3.592-2.45-6.7-2.67.037-1.87-.01-3.06-.015-3.19A1.39 1.39 0 0 0 46.034 0h-36.5a1.39 1.39 0 0 0-1.387 1.33c-.006.13-.052 1.32-.016 3.19-3.108.22-5.36 1.12-6.7 2.67a6.6 6.6 0 0 0-1.322 5.47A47.76 47.76 0 0 0 2.734 23.5c1.41 3.77 3.486 6.24 6.174 7.34a8.383 8.383 0 0 0 3.145.61 9.077 9.077 0 0 0 2.535-.37 17.287 17.287 0 0 0 8.1 6.88c-.637 9.62-7.336 11.48-8.633 11.75H10.58a1.4 1.4 0 0 0-1.388 1.39v13.51a1.388 1.388 0 0 0 1.39 1.39h34.4a1.388 1.388 0 0 0 1.388-1.39V51.1a1.4 1.4 0 0 0-1.39-1.39h-3.465c-1.3-.27-8-2.14-8.632-11.75a17.285 17.285 0 0 0 8.1-6.88 9.08 9.08 0 0 0 2.536.37 8.383 8.383 0 0 0 3.144-.61c2.688-1.1 4.764-3.57 6.173-7.34a47.7 47.7 0 0 0 2.626-10.84 6.59 6.59 0 0 0-1.327-5.47zM27.78 2.78h16.886c0 .46 0 1.03-.018 1.69H10.914c-.015-.66-.02-1.23-.018-1.69H27.78zM9.917 28.25c-1.923-.8-3.466-2.73-4.584-5.72a45.688 45.688 0 0 1-2.467-10.18c0-.02 0-.04-.008-.07a3.9 3.9 0 0 1 .672-3.27c.822-.96 2.435-1.54 4.7-1.71a71.22 71.22 0 0 0 1.667 12.15 39.783 39.783 0 0 0 3.222 9.12 5.82 5.82 0 0 1-3.204-.32zM43.59 63.22H11.972V52.49H43.59v10.73zm-8.13-13.51H20.102c2.234-1.84 4.767-5.18 5.3-10.97a9.54 9.54 0 0 0 4.752 0c.537 5.79 3.07 9.13 5.304 10.97zM24.38 35.6C13.9 32.21 11.53 16.07 11.028 7.25H44.54c-.5 8.82-2.887 24.89-13.343 28.35a11.017 11.017 0 0 1-6.816 0zm28.327-23.32c0 .03-.006.05-.008.07a45.42 45.42 0 0 1-2.468 10.18c-1.118 2.99-2.66 4.92-4.584 5.72a5.82 5.82 0 0 1-3.2.32 39.783 39.783 0 0 0 3.222-9.12A71.22 71.22 0 0 0 47.338 7.3c2.265.17 3.878.75 4.7 1.71a3.9 3.9 0 0 1 .667 3.27zm-16.27 42.05h-17.31a1.387 1.387 0 0 0-1.387 1.39v4.27a1.387 1.387 0 0 0 1.388 1.39h17.31a1.387 1.387 0 0 0 1.388-1.39v-4.27a1.387 1.387 0 0 0-1.39-1.39zM35.05 58.6H20.514v-1.49h14.532v1.49z"/></symbol><symbol id="ico-document" viewBox="0 0 22 29"><path fill="currentColor" fill-rule="evenodd" d="M3 0h16a3 3 0 0 1 3 3v23a3 3 0 0 1-3 3H3a3 3 0 0 1-3-3V3a3 3 0 0 1 3-3zm2 3h12a2 2 0 0 1 2 2v19a2 2 0 0 1-2 2H5a2 2 0 0 1-2-2V5a2 2 0 0 1 2-2zm2 4h8a1 1 0 0 1 1 1v1a1 1 0 0 1-1 1H7a1 1 0 0 1-1-1V8a1 1 0 0 1 1-1zm0 6h8a1 1 0 0 1 1 1v1a1 1 0 0 1-1 1H7a1 1 0 0 1-1-1v-1a1 1 0 0 1 1-1zm0 6h8a1 1 0 0 1 1 1v1a1 1 0 0 1-1 1H7a1 1 0 0 1-1-1v-1a1 1 0 0 1 1-1z"/></symbol><symbol id="ico-dots" viewBox="0 0 19 5"><path fill="currentColor" d="M16.5 5a2.5 2.5 0 0 1 0-5 2.5 2.5 0 0 1 0 5zm-7 0a2.5 2.5 0 0 1 0-5 2.5 2.5 0 0 1 0 5zm-7 0a2.5 2.5 0 0 1 0-5 2.5 2.5 0 0 1 0 5z" fill-rule="evenodd"/></symbol><symbol id="ico-draft" viewBox="0 0 15 21"><path fill="currentColor" d="M15 7.5s-3.328 3.363-4.5 6c-1.72 3.87-3 7.5-3 7.5l-3.303-7.432C2.804 10.435 0 7.5 0 7.5s1.982-1.42 4.298-2.306L3 0h9l-1.298 5.194C13.018 6.08 15 7.5 15 7.5zm-7.5 3a1.5 1.5 0 1 0-.001-3.001A1.5 1.5 0 0 0 7.5 10.5z" fill-rule="evenodd"/></symbol><symbol id="ico-drop-stroke" viewBox="0 0 14 16"><path fill="currentColor" d="M6.5 16C2.91 16 0 13.09 0 9.5S6.5 0 6.5 0 13 5.91 13 9.5 10.09 16 6.5 16zm0-13S2 7.063 2 9.53C2 12 4.015 14 6.5 14S11 12 11 9.53C11 7.064 6.5 3 6.5 3z" fill-rule="evenodd"/></symbol><symbol id="ico-enter" viewBox="0 0 14 10"><path fill="currentColor" d="M12 0h2v8H3v2L0 8V6l3-2v2h9V0z" fill-rule="evenodd"/></symbol><symbol id="ico-evolution" viewBox="0 0 14 10"><path fill="currentColor" d="M10.5 7a3.5 3.5 0 1 1 0-7 3.5 3.5 0 0 1 0 7zm-6 2a2.5 2.5 0 0 1 0-5 2.5 2.5 0 0 1 0 5zm-3-5A1.5 1.5 0 1 1 1.501.999 1.5 1.5 0 0 1 1.5 4z" fill-rule="evenodd"/></symbol><symbol id="ico-eye-closed" viewBox="0 0 19 8"><path fill="currentColor" d="M18.19 4.77a.524.524 0 0 1-.728-.06l-1.356-1.54a9.4 9.4 0 0 1-2.263 1.45l.774 1.8a.494.494 0 0 1-.28.65.7.7 0 0 1-.2.04.523.523 0 0 1-.478-.31L12.884 5a11.765 11.765 0 0 1-3.32.58V7.5a.518.518 0 0 1-1.034 0V5.58a11.862 11.862 0 0 1-3.062-.5l-.74 1.72a.523.523 0 0 1-.477.31.69.69 0 0 1-.2-.04.5.5 0 0 1-.28-.65l.728-1.69a9.65 9.65 0 0 1-2.34-1.42L.924 4.71a.517.517 0 0 1-.4.18.524.524 0 0 1-.333-.12.482.482 0 0 1-.062-.7l1.278-1.46A7.126 7.126 0 0 1 .05.71.488.488 0 0 1 .32.06.527.527 0 0 1 1 .32a6.634 6.634 0 0 0 1.4 1.86c.014.01.03.01.042.02a.414.414 0 0 1 .086.1 8.425 8.425 0 0 0 2.79 1.68.088.088 0 0 1 .05.01c.005 0 .01.01.017.01a10.754 10.754 0 0 0 3.654.59c6.06 0 8.02-4.23 8.04-4.27a.525.525 0 0 1 .68-.26.487.487 0 0 1 .27.65 7.19 7.19 0 0 1-1.207 1.74l1.42 1.62a.482.482 0 0 1-.063.7z"/></symbol><symbol id="ico-eye-open" viewBox="0 0 20 11"><path fill="currentColor" d="M9.884 2.38a2.92 2.92 0 0 0-1.87.67.947.947 0 0 1 .7.91.967.967 0 0 1-1.675.64 2.787 2.787 0 0 0-.08.66 2.93 2.93 0 1 0 2.924-2.88zm9.544 2.46a14.7 14.7 0 0 0-2.64-2.42 11.06 11.06 0 0 0-13.81 0A14.742 14.742 0 0 0 .34 4.84L0 5.26l.34.42A14.33 14.33 0 0 0 2.98 8.1a11.06 11.06 0 0 0 13.81 0 14.29 14.29 0 0 0 2.638-2.42l.34-.42zm-3.49 2.19a9.666 9.666 0 0 1-12.107 0 1.782 1.782 0 1 1 0-3.53 9.63 9.63 0 0 1 12.107 0 1.782 1.782 0 1 1 0 3.53z"/></symbol><symbol id="ico-eye" viewBox="0 0 16 9"><path fill="currentColor" d="M14.982 4.517c-.004-.02-.005-.016 0 0l.002.016A8.499 8.499 0 0 1 7.5 9 8.495 8.495 0 0 1 .05 4.593C-.014 4.49-.014 4.537 0 4.5A8.489 8.489 0 0 1 7.5 0a8.5 8.5 0 0 1 7.527 4.546c-.028.01-.04-.01-.045-.03zM7.5 2a2.5 2.5 0 0 0 0 5 2.5 2.5 0 0 0 0-5z" fill-rule="evenodd"/></symbol><symbol id="ico-facebook" viewBox="0 0 7 14"><path fill="currentColor" d="M6.598 4.888H4.225v-1.22s-.133-1.16.638-1.16h1.56v-2.5h-2.66S1.537 0 1.537 2.355c0 .507-.003 1.428-.006 2.533H.004V6.9h1.523c-.008 3.2-.02 6.765-.02 6.765h2.72V6.9H6.02l.578-2.012z" fill-rule="evenodd"/></symbol><symbol id="ico-fail" viewBox="0 0 16 12"><path fill="currentColor" d="M16 0h-4.48l-3.2 4.42L3.2 0H0l7.04 6.316L3.2 12l1.28-1.264 3.84-3.79L15.36 12 9.6 5.684 16 0z" fill-rule="evenodd"/></symbol><symbol id="ico-feed" viewBox="0 0 14 12"><path fill="currentColor" d="M0 11V6h11v5H0zm9.437-2.5a1 1 0 0 0-1-1H2.626a1 1 0 0 0-1 1v.063a1 1 0 0 0 1 1h5.813a1 1 0 0 0 1-1V8.5zM0 0h11v5H0V0zm1.625 2.562a1 1 0 0 0 1 1h5.813a1 1 0 0 0 1-1V2.5a1 1 0 0 0-1-1H2.625a1 1 0 0 0-1 1v.062z" fill-rule="evenodd"/></symbol><symbol id="ico-fire" viewBox="0 0 14 21"><path fill="#ff2d22" d="M5.8 0s3.94 4.783 3.23 6.18c-1.36 2.7-2.72 4.523 1.02 5.07.96.14 3.08-3.465 3.08-3.465S16 21 7.35 21A7.24 7.24 0 0 1 0 13.875c0-2.1 2.01-5.847 4.97-7.694C8.16 4.19 5.8 0 5.8 0z"/></symbol><symbol id="ico-flag" viewBox="0 0 16 17"><path fill="currentColor" d="M2 2.563v6h7v2h5v-6H7v-2H2zm0-2h6l1 1v1h6l1 1v8l-1 1H8l-1-1v-1H2v5H0V0h2v.563z" fill-rule="evenodd"/></symbol><symbol id="ico-friends" viewBox="0 0 12 16"><path fill="currentColor" d="M10 13c0-2.21-1.79-4-4-4s-4 1.79-4 4v1H0v-1c0-2.575 1.63-4.753 3.91-5.604A3.983 3.983 0 0 1 2 4c0-2.21 1.79-4 4-4s4 1.79 4 4c0 1.44-.767 2.69-1.91 3.396C10.37 8.246 12 10.426 12 13v1h-2v-1zM6 2a2 2 0 1 0-.001 3.999A2 2 0 0 0 6 2z" fill-rule="evenodd"/></symbol><symbol id="ico-gift" viewBox="0 0 58 59"><path fill="currentColor" d="M55.336 11.83h-7.263a2.42 2.42 0 0 0 .103-.707c0-.177.01-.433.018-.728.078-2.36.223-6.755-1.956-9.037C45.378.458 44.27 0 42.952 0c-3.398 0-7.702 3.155-9.394 4.512-.655.524-3.194 2.616-4.558 4.546-1.364-1.93-3.903-4.02-4.558-4.546C22.75 3.155 18.447 0 15.05 0c-1.32 0-2.427.457-3.288 1.358-2.18 2.282-2.034 6.676-1.956 9.037.01.295.018.55.018.728 0 .224.03.465.103.708H2.664C1.194 11.83 0 13.04 0 14.53v11.306c0 1.487 1.195 2.697 2.664 2.697h2.14v28.544c0 1.062.853 1.926 1.902 1.926h44.588c1.05 0 1.903-.864 1.903-1.926V28.53h2.14c1.468 0 2.663-1.21 2.663-2.696V14.528c0-1.487-1.195-2.697-2.664-2.697zM31.78 26.22h-5.56V14.21h5.56v12.01zm3.437-20.088c3.043-2.392 5.934-3.82 7.735-3.82.695 0 1.22.207 1.644.653 1.506 1.577 1.373 5.624 1.315 7.352-.008.314-.018.585-.018.8-.065.058-13.05.55-14.07.413-.988-.13-1.317-.332-1.405-.402.226-.64 1.925-2.735 4.8-4.996zM13.404 2.965c.425-.446.95-.654 1.645-.654 1.8 0 4.69 1.43 7.733 3.822 2.876 2.26 4.575 4.355 4.8 4.997-.09.07-.416.27-1.404.4-1.023.136-14.007-.355-14.072-.413 0-.215-.01-.486-.02-.8-.057-1.728-.19-5.775 1.316-7.352zm-11.12 22.87V14.527c0-.21.173-.385.38-.385h21.273V26.22H2.664a.387.387 0 0 1-.38-.386zm4.803 30.854V28.53h16.85v28.16H7.087zm19.133 0V28.53h5.56v28.16h-5.56zm24.693 0h-16.85V28.53h16.85v28.16zm4.804-30.856c0 .21-.174.386-.38.386H34.062V14.143h21.273c.207 0 .38.176.38.385v11.306z"/></symbol><symbol id="ico-goal-type-1" viewBox="0 0 30 6"><path fill="currentColor" d="M0 5V0h29v5H0zm28-4H1v3h27V1zM12 3H2V2h10v1z" fill-rule="evenodd"/></symbol><symbol id="ico-goal-type-2" viewBox="0 0 20 6"><path fill="currentColor" d="M16.5 5a2.5 2.5 0 0 1 0-5 2.5 2.5 0 0 1 0 5zm0-4a1.5 1.5 0 1 0 .001 3.001A1.5 1.5 0 0 0 16.5 1zm-7 4a2.5 2.5 0 0 1 0-5 2.5 2.5 0 0 1 0 5zm-7 0a2.5 2.5 0 0 1 0-5 2.5 2.5 0 0 1 0 5z" fill-rule="evenodd"/></symbol><symbol id="ico-goal" viewBox="0 0 14 14"><path fill="currentColor" d="M8 2.405V.092A6.978 6.978 0 0 1 13.9 6h-2.3A4.706 4.706 0 0 0 8 2.405zm-2 0A4.709 4.709 0 0 0 2.398 6H.1A6.978 6.978 0 0 1 6 .092v2.313zm0 9.19v2.313A6.978 6.978 0 0 1 .1 8h2.3a4.712 4.712 0 0 0 3.602 3.595zm2 0A4.709 4.709 0 0 0 11.602 8H13.9A6.976 6.976 0 0 1 8 13.908v-2.313z" fill-rule="evenodd"/></symbol><symbol id="ico-goals-connect" viewBox="0 0 36 28"><path fill="currentColor" d="M30.15 27a5.851 5.851 0 0 1 0-11.7 5.851 5.851 0 0 1 0 11.7zm0-9.9a4.05 4.05 0 1 0 0 8.1 4.05 4.05 0 0 0 0-8.1zm-7.65-4.713l.687-.687 2.913 2.913-.687.687-2.913-2.913zm-4.95-.687a5.851 5.851 0 0 1 0-11.7 5.851 5.851 0 0 1 0 11.7zm0-9.9a4.05 4.05 0 1 0 0 8.1 4.05 4.05 0 0 0 0-8.1zM13.5 12.387L10.587 15.3l-.687-.687 2.913-2.913.687.687zM5.85 27a5.851 5.851 0 0 1 0-11.7 5.851 5.851 0 0 1 0 11.7zm0-9.9a4.05 4.05 0 1 0 0 8.1 4.05 4.05 0 0 0 0-8.1z" fill-rule="evenodd"/></symbol><symbol id="ico-gplus" viewBox="0 0 14 14"><path fill="currentColor" d="M13.708 7.284h-1.783V9.01c0 .037-.033.07-.073.07h-.767a.073.073 0 0 1-.073-.07V7.283H9.238a.073.073 0 0 1-.073-.072v-.75c0-.038.033-.07.073-.07h1.774V4.678c0-.04.033-.07.073-.07h.767c.04 0 .073.03.073.07v1.714h1.783c.04 0 .073.03.073.07v.75c0 .04-.032.072-.072.072zM8.038.716a.072.072 0 0 1-.04.01H6.877c.426.34 1.31 1.046 1.31 2.41 0 1.36-.826 1.987-1.554 2.54l-.025.024c-.23.22-.488.47-.488.847 0 .384.258.592.467.76l.675.505c.8.65 1.553 1.262 1.552 2.502 0 1.677-1.668 3.373-4.856 3.373-2.742 0-3.97-1.282-3.97-2.553 0-.32.103-1.42 1.423-2.177 1.12-.663 2.648-.764 3.47-.818l.058-.005-.033-.04c-.257-.317-.52-.644-.52-1.174 0-.27.074-.445.155-.63l.027-.065c-.187.017-.4.036-.59.036-1.99 0-3.064-1.444-3.064-2.803 0-.882.44-1.775 1.18-2.39C3.034.318 4.076 0 5.584 0h3.384c.032 0 .06.02.07.05.01.03-.005.063-.032.08l-.967.586zM3.2 8.922c-1.052.368-1.586.987-1.586 1.838 0 1.304 1.306 2.18 3.25 2.18 1.674 0 2.714-.74 2.714-1.93 0-.933-.654-1.423-2.014-2.357-.147-.018-.24-.018-.423-.018-.01 0-1.097.014-1.94.287zM4.236.672c-.49 0-.997.232-1.293.59-.273.326-.406.76-.406 1.322 0 1.108.677 3.177 2.308 3.177.44 0 .945-.2 1.256-.5.46-.447.46-1.09.46-1.302 0-1.342-.826-3.285-2.324-3.285z" fill-rule="evenodd"/></symbol><symbol id="ico-gr-done" viewBox="0 0 18 18"><path fill="#f0f0f2" d="M0 0h18v18H0z"/><path d="M18 18h-6v-6h6v6zM6 12V6h6v6H6zm-6 6v-6h6v6H0zM0 0h6v6H0V0zm18 0v6h-6V0h6z" fill="#505765" fill-rule="evenodd"/></symbol><symbol id="ico-gr-fail" viewBox="0 0 20 20"><path d="M10 20C4.477 20 0 15.523 0 10S4.477 0 10 0s10 4.477 10 10-4.477 10-10 10zm4.707-13.293l-1.414-1.414L10 8.586 6.707 5.293 5.293 6.707 8.586 10l-3.293 3.293 1.414 1.414L10 11.414l3.293 3.293 1.414-1.414L11.414 10l3.293-3.293z" fill="#F30018" fill-rule="evenodd"/></symbol><symbol id="ico-gr-gone" viewBox="0 0 20 20"><path d="M10 20C4.477 20 0 15.523 0 10S4.477 0 10 0s10 4.477 10 10-4.477 10-10 10zM9.707 5.707L8.293 4.293 6.5 6.086 4.707 4.293 3.293 5.707 5.086 7.5 3.293 9.293l1.414 1.414L6.5 8.914l1.793 1.793 1.414-1.414L7.914 7.5l1.793-1.793zM7 14v2s1.343-1 2.758-1C11.334 15 13 16 13 16v-2s-1.47-1-2.956-1C8.53 13 7 14 7 14zm9.707-8.293l-1.414-1.414L13.5 6.086l-1.793-1.793-1.414 1.414L12.086 7.5l-1.793 1.793 1.414 1.414L13.5 8.914l1.793 1.793 1.414-1.414L14.914 7.5l1.793-1.793z" fill="#8F96A4" fill-rule="evenodd"/></symbol><symbol id="ico-gr-leave" viewBox="0 0 20 20"><path d="M10 20C4.477 20 0 15.523 0 10S4.477 0 10 0s10 4.477 10 10-4.477 10-10 10zM6.555 7.168l-1.11 1.664.252.168H3v2h2.586l-.293.293 1.414 1.414L8.414 11H9v-.586l.707-.707L9.4 9.4l.155-.232-1.16-.774-.102-.1-.02.02-1.718-1.146zM14 6V4H9v2h3v8H9v2h5V6z" fill="#FFCF2C" fill-rule="evenodd"/></symbol><symbol id="ico-gr-ok" viewBox="0 0 20 20"><path d="M10 20C4.477 20 0 15.523 0 10S4.477 0 10 0s10 4.477 10 10-4.477 10-10 10zm3.24-13.65l-4.835 5.64-2.698-2.697-1.414 1.414 4 4 .245-.245.22.19 6-7-1.517-1.303z" class="cls-2" fill-rule="evenodd" fill="#00BBDB"/></symbol><symbol id="ico-gr-partial" viewBox="0 0 20 20"><path d="M10 20C4.477 20 0 15.523 0 10S4.477 0 10 0s10 4.477 10 10-4.477 10-10 10zm5.702-13.834C13.78 3.628 11.81 3 10 3c-1.85 0-3.88.523-5.787 3.278C2.92 8.148 3 10 3 10h14s.11-1.976-1.298-3.834z" fill="#00BBDB" fill-rule="evenodd"/></symbol><symbol id="ico-group" viewBox="0 0 27 23"><path fill="currentColor" d="M27 17.045c0 .597-.067 1.196-.2 1.783a.718.718 0 0 1-.548.544c-1.468.325-3.037.557-4.653.72-.032.44-.084.882-.182 1.315a.719.719 0 0 1-.55.543c-3.14.697-6.523 1.05-10.05 1.05-3.53 0-6.912-.353-10.054-1.05a.722.722 0 0 1-.55-.544A9.138 9.138 0 0 1 0 19.472c0-3.717 2.388-7.102 6.046-8.72a5.982 5.982 0 0 1-1.35-3.79C4.695 3.625 7.44.91 10.815.91c.888 0 1.726.196 2.488.533C14.336.536 15.66 0 17.042 0c3.123 0 5.663 2.512 5.663 5.6 0 1.26-.428 2.468-1.2 3.444 3.327 1.502 5.495 4.6 5.495 8zM6.144 6.963c0 1.355.6 2.638 1.65 3.52a.712.712 0 0 1-.24 1.225c-3.65 1.2-6.105 4.32-6.105 7.764 0 .393.03.788.095 1.18 2.906.607 6.023.915 9.272.915 3.25 0 6.365-.308 9.272-.916.063-.39.094-.784.094-1.178 0-.186-.034-.367-.048-.55-.02-.246-.024-.493-.067-.733-.03-.162-.088-.315-.127-.473-.063-.252-.115-.507-.203-.75-.045-.124-.113-.24-.164-.36-.114-.27-.222-.54-.366-.796-.047-.083-.11-.158-.16-.24a8.395 8.395 0 0 0-.554-.827c-.045-.057-.102-.105-.148-.16-.23-.28-.47-.552-.737-.803-.06-.056-.13-.1-.192-.156a9.092 9.092 0 0 0-.847-.683c-.14-.096-.3-.172-.447-.263-.24-.148-.475-.304-.734-.432a9.85 9.85 0 0 0-1.31-.537.714.714 0 1 1-.24-1.226 4.586 4.586 0 0 0 1.65-3.52 4.564 4.564 0 0 0-.129-1.036 4.426 4.426 0 0 0-.227-.725l-.015-.042a4.65 4.65 0 0 0-.497-.861 4.852 4.852 0 0 0-.46-.553c-.02-.02-.035-.04-.054-.06-.19-.185-.4-.352-.618-.504-.055-.037-.112-.07-.17-.107a4.665 4.665 0 0 0-2.5-.732c-2.578 0-4.674 2.074-4.674 4.623zM20.01 10a.717.717 0 0 1-.484-.543.71.71 0 0 1 .242-.682 4.145 4.145 0 0 0 1.488-3.174c0-2.297-1.89-4.167-4.214-4.167-.89 0-1.732.27-2.44.773.084.064.144.15.223.217a6.3 6.3 0 0 1 .884.939c.16.212.298.436.43.668.078.138.16.27.228.416.126.27.22.555.304.845.036.125.087.242.116.368.094.42.15.856.15 1.305 0 1.39-.48 2.723-1.35 3.79.442.194.862.417 1.264.66.14.086.263.185.397.275.253.17.507.338.742.527.148.118.28.25.42.375.2.18.402.356.585.548.138.143.26.296.388.446.163.192.326.384.473.586.118.163.223.33.33.5.13.206.26.413.373.627.095.177.18.358.26.54.1.22.193.44.275.667a9.216 9.216 0 0 1 .45 1.862c.014.1.04.198.05.3 1.342-.14 2.64-.337 3.876-.593.054-.34.08-.685.08-1.028 0-3.124-2.227-5.954-5.54-7.045z" fill-rule="evenodd"/></symbol><symbol id="ico-heart-stroke" viewBox="0 0 13 12"><path fill="currentColor" d="M6.476 11.53c-.19-.657-6.507-4.75-6.49-7.43C.02-.536 4.79-1.47 6.467 2.528c1.6-3.836 6.453-3.103 6.485 1.546.02 2.66-6.303 6.775-6.474 7.458zm-.01-6.684C4.992 3.53 1.977.59 1.963 3.666 1.955 5.057 6.37 8.188 6.472 8.53c.093-.354 4.54-3.496 4.504-4.88-.08-3.026-3.01-.192-4.51 1.196z" fill-rule="evenodd"/></symbol><symbol id="ico-heart" viewBox="0 0 13 12"><path fill="currentColor" d="M6.31 2.527C4.67-1.47.014-.537-.017 4.1c-.017 2.68 6.15 6.773 6.334 7.43.167-.682 6.338-4.797 6.32-7.457-.03-4.65-4.767-5.382-6.33-1.546z" fill-rule="evenodd"/></symbol><symbol id="ico-homework-notify" viewBox="0 0 25 22"><defs><style>.cls-1{fill:#8f96a2;fill-rule:evenodd}</style></defs><path d="M3 5h3V4c0-.905.525-2.434 1.093-3.02C7.66.38 8.45 0 9.307 0h6.386c.858 0 1.646.38 2.214.98a3.34 3.34 0 0 1 .915 2.324L19 5h3v6c0 .396-.69 1-1 1h-1v-2c0-.783-1.258-1-2-1h-2c-.73 0-1 1.217-1 2v1h-5v-1c0-.783-.27-2-1-2H6c-.742 0-1 1.217-1 2v1H4c-.308 0-1-.604-1-1V5zm4 0h11V4c-.033-1.333-1.634-3-3-3H9S6.946 2.34 7 4v1zm11 5c.336 0 1 .645 1 1v3c0 .648-.664 1-1 1h-1c-.887.034-1-.645-1-1v-3c0-.355.2-1 1-1h1zM8 10c.324 0 1 .645 1 1v3c0 .355-.676 1-1 1H7c-.336 0-1-.645-1-1v-3c0-.355.664-1 1-1h1zm15-5c1.066.355 2 .886 2 2.122v12.1C25 20.753 23.818 22 22.37 22H2.63C1.183 22 0 20.752 0 19.223v-12.1C0 5.885.934 5.354 2 5v6c0 .758.144.954.62 1.456.475.49.662.544 1.38.544h1v1c0 .783.258 2 1 2h3c.73 0 1-1.217 1-2v-1h5v1c0 .783.27 2 1 2h3c.742 0 1-1.217 1-2v-1h1c.72 0 .905-.055 1.38-.544.476-.502.62-.698.62-1.456V5z" class="cls-1"/></symbol><symbol id="ico-homework" viewBox="0 0 24 30"><path fill="currentColor" d="M22.5 30h-21A1.5 1.5 0 0 1 0 28.5V6c0-.83.672-1.5 1.5-1.5h3C4.5 3.67 5.172 3 6 3h1.5V1.5A1.5 1.5 0 0 1 9 0h6a1.5 1.5 0 0 1 1.5 1.5V3H18c.83 0 1.5.67 1.5 1.5h3c.828 0 1.5.67 1.5 1.5v22.5a1.5 1.5 0 0 1-1.5 1.5zM18 4.5h-3v-3H9v3H6V6h12V4.5zM22.5 6h-3c0 .83-.67 1.5-1.5 1.5H6A1.5 1.5 0 0 1 4.5 6h-3v22.5h21V6zm-3 6h-15v-1.5h15V12zm0 4.5h-15V15h15v1.5z" fill-rule="evenodd"/></symbol><symbol id="ico-install" viewBox="0 0 12 12"><path fill="currentColor" d="M0 11V9h12v2H0zm3-6h2V0h2v5h2L6 8 3 5z" fill-rule="evenodd"/></symbol><symbol id="ico-kite-stroke" viewBox="0 0 16 16"><path fill="currentColor" d="M8 16L0 5l8-5 8 5-8 11zM3 5.436L8 13l5-7.563L8 2 3 5.437z" fill-rule="evenodd"/></symbol><symbol id="ico-level" viewBox="0 0 40 8"><path fill="currentColor" d="M0 8V0h39v8H0zm38-7H1v6h37V1zM17 6H2V2h15v4z" fill-rule="evenodd"/></symbol><symbol id="ico-lock" viewBox="0 0 11 14"><path fill-rule="evenodd" fill="currentColor" d="M10.22 6.058h-.28V4.69A4.57 4.57 0 0 0 5.63 0h-.26a4.57 4.57 0 0 0-4.31 4.69v1.368H.78A.94.94 0 0 0 0 7.1v5.86a.943.943 0 0 0 .78 1.043h9.44A.943.943 0 0 0 11 12.96V7.1a.94.94 0 0 0-.78-1.04zM6.384 10.52v1.073a.432.432 0 0 1-.416.438h-.936a.432.432 0 0 1-.416-.437V10.52a1.263 1.263 0 0 1-.348-.887 1.214 1.214 0 0 1 1.1-1.25h.262a1.214 1.214 0 0 1 1.1 1.25 1.263 1.263 0 0 1-.348.887zm1.72-4.462H2.9V4.69a2.607 2.607 0 1 1 5.206 0v1.368zm0 0"/></symbol><symbol id="ico-logout" viewBox="0 0 14 16"><path fill="currentColor" d="M10 11.47l-1-1v-2H6v-2h3v-2l1-1 4 4-4 4zM6.018 1.803A6.006 6.006 0 0 0 2 7.47a6.005 6.005 0 0 0 3.976 5.65c.632.225-.07 2.138-1.002 1.757A8.005 8.005 0 0 1 5.02.04c.922-.37 1.618 1.545.998 1.762z" fill-rule="evenodd"/></symbol><symbol id="ico-mail" viewBox="0 0 50 38"><path fill="currentColor" fill-rule="evenodd" d="M7 0h36a7 7 0 0 1 7 7v24a7 7 0 0 1-7 7H7a7 7 0 0 1-7-7V7a7 7 0 0 1 7-7zm0 4h36a3 3 0 0 1 3 3L25 18v4l21-11.12V31a3 3 0 0 1-3 3H7a3 3 0 0 1-3-3V10.98L25 22v-4L4 7a3 3 0 0 1 3-3z"/></symbol><symbol id="ico-megafon" viewBox="0 0 18 14"><path fill="currentColor" d="M5.92 9.045L8 12l-3 1-1.987-4.468L0 8V4l17-4v11L5.92 9.045zM15 2L2 5v2l13 2V2z" fill-rule="evenodd"/></symbol><symbol id="ico-menu" viewBox="0 0 22 16"><path fill="currentColor" d="M20.5 9h-19a1.5 1.5 0 0 1 0-3h19a1.5 1.5 0 1 1 0 3zm0-6h-19a1.5 1.5 0 0 1 0-3h19a1.5 1.5 0 1 1 0 3zm-19 9h19a1.5 1.5 0 1 1 0 3h-19a1.5 1.5 0 0 1 0-3z" fill-rule="evenodd"/></symbol><symbol id="ico-messages" viewBox="0 0 18 14"><path fill="currentColor" d="M16 13H2a2 2 0 0 1-2-2V2a2 2 0 0 1 2-2h14a2 2 0 0 1 2 2v9a2 2 0 0 1-2 2zM2 3v7a1 1 0 0 0 1 1h12a1 1 0 0 0 1-1V3c0-.087-.03-.165-.05-.245l-6.257 6.23.004.005-.707.707-.006-.006-.005.007-.71-.707.007-.006L2.05 2.756C2.03 2.836 2 2.914 2 3zm1-1c-.086 0-.164.03-.244.05l6.23 6.23 6.256-6.23C15.162 2.03 15.086 2 15 2H3z" fill-rule="evenodd"/></symbol><symbol id="ico-minus" viewBox="0 0 16 4"><path fill="currentColor" d="M0 0v3h15V0H0z" fill-rule="evenodd"/></symbol><symbol id="ico-money" viewBox="0 0 8 14"><path fill="currentColor" d="M4.798 12.064c1.894-.373 2.823-1.67 2.823-2.998 0-3.345-4.83-3.09-4.83-4.785 0-.524.42-.944 1.17-.944 1.11 0 1.71.66 1.966.975L7.35 2.617C7.056 2.23 6.208 1.58 4.866 1.402 4.82 1.372 4.875 0 4.875 0h-2s-.04 1.444.054 1.514C1.426 1.92.45 3.07.45 4.46c0 3.316 4.846 3.09 4.846 4.756 0 .555-.435 1.02-1.35 1.02-1.275 0-2.19-.81-2.64-1.26L0 10.866c.31.35 1.29 1.066 2.853 1.257.03.03.022 1.877.022 1.877h2s-.096-1.898-.077-1.936z" fill-rule="evenodd"/></symbol><symbol id="ico-nav-fwd-thin" viewBox="0 0 10 18"><path fill="currentColor" d="M9.745 9.236l-8.422 8.752L0 16.613l7.427-7.718L.25 1.447 1.63.012l7.84 8.135-.386.402.66.686z" fill-rule="evenodd"/></symbol><symbol id="ico-nav-fwd" viewBox="0 0 8 12"><path fill="currentColor" d="M0 2l2-2 6 6-6 6-2-2 4-4-4-4z" fill-rule="evenodd"/></symbol><symbol id="ico-ok" viewBox="0 0 9 7"><path fill="currentColor" d="M8.426 1.426l-5.22 5.187-.003-.004-.004.003L.01 3.426l1.414-1.414 1.78 1.78L7.013.013l1.414 1.414z" fill-rule="evenodd"/></symbol><symbol id="ico-pause" viewBox="0 0 11 11"><path fill="currentColor" d="M7 11V0h4v11H7zM0 0h4v11H0V0z" fill-rule="evenodd"/></symbol><symbol id="ico-pen" viewBox="0 0 12 12"><path fill="currentColor" d="M9.31 5.062l-3.354-3.33L7.67-.003l3.326 3.36L9.31 5.062zM6.804 3.594L1.78 8.61.464 7.28l4.983-5.034 1.357 1.348zM0 11V7.59L3.252 11H0zm7.318-6.895L8.8 5.577 3.79 10.64l-1.5-1.514 5.028-5.02z" fill-rule="evenodd"/></symbol><symbol id="ico-play" viewBox="0 0 14.781 25.41"><path fill="currentColor" fill-rule="evenodd" d="M4 1.03l10.028 10.08a2.516 2.516 0 0 1 0 3.55L4 24.74c-.977.98-3.992 1.06-4-1.02 0-3.34-.028-18.94 0-22C.025-.97 3.018.05 4 1.03zM3 4.72l8 8-8 9v-17z"/></symbol><symbol id="ico-plus-thin" viewBox="0 0 14 14"><path fill="currentColor" d="M6 0h2v6h6v2H8v6H6V8H0V6h6V0z"/></symbol><symbol id="ico-plus" viewBox="0 0 16 16"><path fill="currentColor" d="M0 6h6V0h3v6h6v3H9v6H6V9H0V6z" fill-rule="evenodd"/></symbol><symbol id="ico-power-off" viewBox="0 0 14 15"><path fill="currentColor" d="M7 15a7 7 0 0 1-7-7c0-2.788 1.642-5.175 4-6.3v2.323C2.792 4.935 2 6.37 2 8c0 2.76 2.24 5 5 5s5-2.24 5-5c0-1.63-.792-3.065-2-3.977V1.7c2.358 1.125 4 3.512 4 6.3a7 7 0 0 1-7 7zm.5-9h-1a.5.5 0 0 1-.5-.5v-5a.5.5 0 0 1 .5-.5h1a.5.5 0 0 1 .5.5v5a.5.5 0 0 1-.5.5z" fill-rule="evenodd"/></symbol><symbol id="ico-presentation" viewBox="0 0 30 30"><path fill="currentColor" d="M28.5 22.41h-9.78l3.68 6.353a.744.744 0 0 1-.275 1.02.75.75 0 0 1-1.025-.272l-4.113-7.1h-3.974L8.9 29.51a.75.75 0 0 1-1.299-.746l3.68-6.354H1.5c-.83 0-1.5-.67-1.5-1.495V1.48C0 .653.67-.016 1.5-.016h27c.828 0 1.5.67 1.5 1.494v19.435c0 .825-.672 1.495-1.5 1.495zm0-20.93h-27v19.435h27V1.48zM11.376 7.044a.75.75 0 0 1 1.093-.169l6.83 5.446 4.057-6.74a.753.753 0 0 1 1.03-.257c.354.212.47.672.256 1.025l-4.5 7.475a.752.752 0 0 1-1.112.2l-6.86-5.47-5.546 8.29a.748.748 0 0 1-1.041.208.743.743 0 0 1-.208-1.035l6-8.97z" fill-rule="evenodd"/></symbol><symbol id="ico-rescue" viewBox="0 0 30 30"><g fill="currentColor"><path d="M24.683 6.833a11.593 11.593 0 0 0-8.223-3.405 11.59 11.59 0 0 0-8.22 3.406 11.585 11.585 0 0 0-3.406 8.22c0 2.363.708 4.562 1.918 6.397.374-.064.737-.123 1.086-.18 1.114-.18 2.076-.335 2.682-.595 1-.43 1.71-1.026 1.856-1.56.41-1.497-.285-2.683-.285-2.683a4.62 4.62 0 0 1-.21-1.38c0-1.266.512-2.407 1.342-3.238a4.57 4.57 0 0 1 3.24-1.342c1.266 0 2.407.512 3.237 1.342a4.57 4.57 0 0 1 1.342 3.24 4.562 4.562 0 0 1-1.343 3.238 4.563 4.563 0 0 1-3.868 1.298c-.04.228-.098.47-.182.726-.918 2.814-4.475 3.71-6.237 3.984a11.582 11.582 0 0 0 7.047 2.38c3.21 0 6.12-1.302 8.222-3.405a11.589 11.589 0 0 0 3.405-8.222 11.58 11.58 0 0 0-3.404-8.22zM16.46 8.67v.007c0 .457-.294.605-.513.652a4.236 4.236 0 0 0-.197.02h-.032l.005.003a5.74 5.74 0 0 0-4.991 5.222c-.06.21-.217.46-.64.46-.054 0-.1.01-.14.02H6.85a.554.554 0 0 0-.14-.02c-.727 0-.673-.742-.673-.742a10.412 10.412 0 0 1 3.03-6.633 10.418 10.418 0 0 1 6.743-3.04c.198.012.653.102.653.67V8.67zm7.395 13.78a10.426 10.426 0 0 1-6.662 3.034l.014-.012s-.742.053-.742-.673c0-.015-.003-.024-.004-.037V21.45c.002-.013.005-.022.005-.037 0-.394.22-.558.42-.625a5.735 5.735 0 0 0 3.642-1.667 5.73 5.73 0 0 0 1.664-3.597c.057-.21.21-.46.62-.47h3.428c.658.015.656.652.653.734a10.41 10.41 0 0 1-3.035 6.662z"/><path d="M13.205 17.07s2.164.343 1.334 2.884c-.83 2.542-4.766 3.148-5.868 3.266-1.102.118-2.67.283-2.67.283s-3.865.327-4.687 2.928l-.457-.108s.425-2.22 3.225-3.064c2.8-.844 5.423-.874 6.898-1.506 1.477-.633 3.685-2.164 1.975-4.5l.25-.182z"/></g></symbol><symbol id="ico-ring" viewBox="0 0 14 14"><path fill="currentColor" d="M6.842 14.03c-3.78 0-6.846-3.143-6.846-7.02 0-3.88 3.065-7.022 6.846-7.022 3.78 0 6.846 3.143 6.846 7.02 0 3.88-3.065 7.023-6.846 7.023zm-.155-11a4 4 0 1 0 0 8 4 4 0 0 0 0-8z" fill-rule="evenodd"/></symbol><symbol id="ico-rocket" viewBox="0 0 63.406 63.84"><path fill="currentColor" d="M62.71 1.05a3.1 3.1 0 0 0-3-1 37.164 37.164 0 0 0-9.274 2.89l-1.153.59a3.113 3.113 0 0 0-1.094 1.19 1.107 1.107 0 0 0-1.015.07 65.474 65.474 0 0 0-12.734 9.99 40.3 40.3 0 0 0-3.638 4.67l-1.077 1.67-10.046-.53a8.523 8.523 0 0 0-5.742 2.22L1.095 35.68c-.585.59-1.562 1.57-.81 2.52s1.92.21 2.616-.23l2.35-1.49a18.763 18.763 0 0 1 4.994-2.05 4.607 4.607 0 0 1 3.75 1.08l3.75 3.76-1.15 1.74c-.49.74-2 3.27-.79 4.51l2.19 2.22a1.706 1.706 0 0 0 1.25.48 6.83 6.83 0 0 0 3.23-1.25l1.707-1.13 3.923 3.93a4.67 4.67 0 0 1 1.028 3.91 19.28 19.28 0 0 1-2.033 4.87l-1.5 2.38c-.443.7-1.183 1.87-.24 2.63a1.135 1.135 0 0 0 .734.28 2.943 2.943 0 0 0 1.766-1.08l12.842-12.88a8.678 8.678 0 0 0 2.23-5.77l-.462-10.48 1.36-.93a51.893 51.893 0 0 0 4.62-3.62 61.532 61.532 0 0 0 10.122-12.7 1.134 1.134 0 0 0 .085-.99 3.317 3.317 0 0 0 1.2-1.2l.56-1.09a37.8 37.8 0 0 0 2.945-9.37 3.26 3.26 0 0 0-.647-2.68zM15.605 33.88a6.984 6.984 0 0 0-6.013-1.67 18.886 18.886 0 0 0-2.678.88l8.632-8.65a6.226 6.226 0 0 1 4.013-1.55l8.726.46-.385.6-8.86 13.37zM40.64 44.22a6.37 6.37 0 0 1-1.562 4.04l-8.627 8.65a20.26 20.26 0 0 0 .938-2.85 6.957 6.957 0 0 0-1.676-5.91l-3.588-3.61 13.868-9.21a.3.3 0 0 1 .03-.03l.218-.15zm6.28-16.85a49.483 49.483 0 0 1-4.378 3.43l-4.227 2.89-17.1 11.36a5.727 5.727 0 0 1-1.82.85l-1.748-1.78a5.89 5.89 0 0 1 .85-1.84L29.81 25.21v-.01h.006l2.9-4.5a38.113 38.113 0 0 1 3.387-4.34 65.057 65.057 0 0 1 11.68-9.23 4.265 4.265 0 0 0 .69 1.65 31.457 31.457 0 0 0 6.137 6.26 4.074 4.074 0 0 0 1.665.68 60.718 60.718 0 0 1-9.354 11.65zM61.107 3.36a36.164 36.164 0 0 1-2.725 8.69l-.527 1.03a.98.98 0 0 1-.875.46 1.782 1.782 0 0 1-1.04-.37 26.72 26.72 0 0 1-2.99-2.66 27.543 27.543 0 0 1-2.608-3.05 1.73 1.73 0 0 1-.325-1.33.905.905 0 0 1 .365-.59l1.09-.56a34.44 34.44 0 0 1 8.87-2.69.783.783 0 0 1 .62.24 1.01 1.01 0 0 1 .146.83zm-50.12 42.55a4.568 4.568 0 0 0-2.754.74C4.55 49.73.814 59.49.66 59.91a2.677 2.677 0 0 0 .108 2.57 2.072 2.072 0 0 0 1.774.87 3.64 3.64 0 0 0 1.24-.24c2.2-.8 13.224-5.01 13.933-9.41a6.715 6.715 0 0 0-1.37-5.54 7.124 7.124 0 0 0-5.36-2.25zm4.464 7.45c-.36 2.24-7.5 5.79-12.45 7.59a1.216 1.216 0 0 1-.3.08 2.433 2.433 0 0 1 .092-.3c1.01-2.67 4.225-10.07 6.89-12.29a2.77 2.77 0 0 1 1.305-.23 4.955 4.955 0 0 1 3.633 1.46 4.5 4.5 0 0 1 .83 3.69zm22.582-29.57l-8.378 8.44a1.162 1.162 0 0 0 0 1.63 1.155 1.155 0 0 0 1.617 0l8.38-8.44a1.162 1.162 0 0 0 0-1.63 1.137 1.137 0 0 0-1.62 0z"/></symbol><symbol id="ico-scroll-down" viewBox="0 0 20 12"><path fill="currentColor" d="M0 2.812l2-2 7.522 7.74 8.47-8.562 1.978 1.844L9.516 11.872z"/></symbol><symbol id="ico-select-arrow" viewBox="0 0 6 9"><path fill="currentColor" d="M2.487 0L4.87 2.97H.012L2.487 0zM2.45 9L.1 6.03h4.858L2.45 9z"/></symbol><symbol id="ico-settings" viewBox="0 0 16 16"><path fill="currentColor" d="M13.61 8.987h-.925c-.12.406-.284.793-.487 1.156l.648.648a1.454 1.454 0 0 1-2.055 2.056l-.647-.648c-.36.202-.745.363-1.148.484v.916a1.452 1.452 0 1 1-2.906.001v-.91a5.634 5.634 0 0 1-1.172-.49l-.666.666c-.57.568-1.49.568-2.06 0-.57-.57-.57-1.49 0-2.06l.67-.67a5.561 5.561 0 0 1-.484-1.147h-.925a1.456 1.456 0 1 1 0-2.911h.925c.12-.405.283-.793.487-1.155l-.67-.67A1.452 1.452 0 1 1 4.25 2.198l.67.67a5.7 5.7 0 0 1 1.17-.492v-.93a1.453 1.453 0 1 1 2.905-.002v.94c.4.12.783.278 1.14.48l.653-.654a1.458 1.458 0 0 1 2.06 0c.568.57.568 1.49 0 2.06l-.65.65c.203.363.366.75.486 1.157h.925a1.456 1.456 0 0 1-.001 2.913zM7.53 4.684a2.848 2.848 0 1 0 0 5.692 2.848 2.848 0 0 0 .002-5.69z" class="cls-2" fill-rule="evenodd"/></symbol><symbol id="ico-share" viewBox="0 0 12 14"><path fill="currentColor" d="M9.5 5c-.486 0-.937-.145-1.32-.385l-3.227 2.42c.03.15.047.306.047.465 0 .064-.014.123-.02.186l2.978 1.86A2.48 2.48 0 0 1 9.5 9a2.5 2.5 0 0 1 0 5A2.5 2.5 0 0 1 7 11.5c0-.064.014-.123.02-.186l-2.98-1.86A2.47 2.47 0 0 1 2.5 10a2.5 2.5 0 0 1 0-5c.486 0 .937.145 1.32.385l3.227-2.42A2.365 2.365 0 0 1 7 2.5a2.5 2.5 0 0 1 5 0A2.5 2.5 0 0 1 9.5 5z" fill-rule="evenodd"/></symbol><symbol id="ico-skull" viewBox="0 0 12 12"><g fill="currentColor" fill-rule="evenodd" clip-rule="evenodd"><path d="M2.997 5.07c0 .52.47.945 1.072 1v.56c0 .64.386 1.037.937 1.284V7.21c0-.09.077-.168.17-.168s.17.076.17.17v.81c.097.02.2.03.3.03h.185v-.84a.17.17 0 0 1 .17-.17.17.17 0 0 1 .17.17v.84h.182c.104 0 .204-.01.302-.03v-.81c0-.093.077-.17.17-.17a.17.17 0 0 1 .17.17v.702c.548-.247.936-.644.936-1.284v-.56c.603-.054 1.07-.48 1.07-1a.898.898 0 0 0-.228-.59c.357-.445.566-.982.566-1.56C9.34 1.374 7.844.122 6 .122c-1.846 0-3.342 1.252-3.342 2.798 0 .578.21 1.115.567 1.56a.903.903 0 0 0-.228.59zM7.24 3.38a.77.77 0 0 1 .77.772.77.77 0 1 1-1.54.002c0-.428.344-.775.77-.775zM6 5.192c.406.21.585.533.594.965-.27.123-.475-.012-.592-.406-.116.394-.326.53-.596.406.01-.432.186-.754.593-.965zM4.76 3.38a.771.771 0 1 1-.001-.001z"/><path d="M8.78 8.16c.53-.693-.78-1.3-.847-.11l-1.94 1.032c-.85-.453-1.667-.888-1.933-1.028-.067-1.17-1.366-.61-.834.085-.873-.052-.643 1.373.383.762.204.11.736.392 1.358.724l-1.358.723c-1.024-.61-1.256.814-.382.763-.533.697.767 1.257.834.086l1.93-1.026c1.008.533 1.94 1.028 1.94 1.028.067 1.188 1.378.585.848-.11.875.052.612-1.337-.396-.74 0 0-.604-.32-1.364-.726L8.385 8.9c1.01.6 1.27-.793.396-.74z"/></g></symbol><symbol id="ico-smile" viewBox="0 0 22 22"><path fill="currentColor" d="M10.5 21C4.7 21 0 16.3 0 10.5S4.7 0 10.5 0 21 4.7 21 10.5 16.3 21 10.5 21zm0-19a8.5 8.5 0 1 0 .001 17.001A8.5 8.5 0 0 0 10.5 2zm-.03 13C7.687 15 6 12 6 12s1.41 1 4.47 1c3.06 0 4.53-1 4.53-1s-1.75 3-4.53 3zm3.03-5a1.5 1.5 0 1 1 .001-3.001A1.5 1.5 0 0 1 13.5 10zm-6 0a1.5 1.5 0 1 1 .001-3.001A1.5 1.5 0 0 1 7.5 10z" fill-rule="evenodd"/></symbol><symbol id="ico-snowflake" viewBox="0 0 29 26"><path fill="currentColor" d="M29 13l-.764-1.37h-3.38l1.474-2.644-.764-1.372h-1.53L21.8 11.63h-5.006l2.502-4.49h4.476l.764-1.37-.764-1.372h-2.947l1.69-3.03-.764-1.372h-1.53l-1.688 3.03L17.058.384h-1.53l-.763 1.37 2.237 4.015-2.502 4.487-2.503-4.488 2.238-4.015-.764-1.37h-1.528l-1.473 2.64-1.69-3.03H7.25l-.765 1.372 1.69 3.03H5.228L4.464 5.77l.764 1.37h4.476l2.503 4.49-5.005-.002-2.238-4.014h-1.53L2.67 8.986l1.473 2.642H.763L0 13l.764 1.37h3.38L2.67 17.015l.765 1.37h1.53L7.2 14.372h5.005l-2.503 4.49H5.228l-.764 1.37.764 1.372h2.947l-1.69 3.03.765 1.372h1.53l1.69-3.03 1.472 2.642h1.53l.764-1.37-2.24-4.015 2.504-4.488 2.502 4.49-2.237 4.013.764 1.37h1.528l1.474-2.642 1.69 3.03h1.53l.763-1.37-1.69-3.03h2.947l.765-1.372-.765-1.37h-4.476l-2.502-4.49H21.8l2.237 4.015h1.53l.763-1.37-1.473-2.644h3.38L29 13z" fill-rule="evenodd"/></symbol><symbol id="ico-spam" viewBox="0 0 18 18"><path fill="currentColor" d="M8.5 17A8.5 8.5 0 1 1 8.501-.001 8.5 8.5 0 0 1 8.5 17zm0-15a6.5 6.5 0 1 0 0 13 6.5 6.5 0 0 0 0-13zm3 8h-6a1.5 1.5 0 0 1 0-3h6a1.5 1.5 0 0 1 0 3z" fill-rule="evenodd"/></symbol><symbol id="ico-star-stroke" viewBox="0 0 14 13"><path fill="currentColor" d="M10.733 8.37l.593 4.63L7 11.017l-4.326 1.98.593-4.628L0 4.965l4.693-.88L7 0l2.307 4.085 4.692.88-3.267 3.405zM8.146 5.613L7 3.585 5.854 5.613l-2.33.437 1.622 1.69-.294 2.3L7 9.056l2.148.984-.294-2.3 1.62-1.69-2.328-.437z" fill-rule="evenodd"/></symbol><symbol id="ico-star" viewBox="0 0 14 13"><path fill="currentColor" d="M7 0l2.307 4.085 4.692.88-3.267 3.405.593 4.63L7 11.017l-4.326 1.98.593-4.628L0 4.965l4.693-.88L7 0" fill-rule="evenodd"/></symbol><symbol id="ico-statistic" viewBox="0 0 13 9"><path fill="currentColor" d="M12.426 1.426l-5 5-.207-.208-.208.208L5.22 4.633 1.425 8.426.012 7.01l5-5 .207.208.206-.207L7.22 3.805 11.01.01l1.414 1.416z" fill-rule="evenodd"/></symbol><symbol id="ico-substep" viewBox="0 0 18 14"><path fill="currentColor" d="M7 13V9h11v4H7zM0 0h18v4H0V0zm.01 6.012h1.555c-.006.01-.022.163-.022 1.488A2.957 2.957 0 0 0 4.5 10.457c.084 0 .477.065.477.065l-.065 1.457L4.5 12C2.015 12 0 9.985 0 7.5s.01-1.488.01-1.488zm1.558 0h-.003c0-.003.003 0 .003 0z" fill-rule="evenodd"/></symbol><symbol id="ico-success" viewBox="0 0 22 20"><path fill="currentColor" d="M0 8.05l6.46 11.757L21.8-.007 6.39 12.52 0 8.05z" fill-rule="evenodd"/></symbol><symbol id="ico-summary" viewBox="0 0 14 16"><path fill="currentColor" d="M10.055 13.3c0-.537-.08-1.07-.08-2.282A4.982 4.982 0 0 0 12 7c0-2.76-2.24-5-5-5a5.002 5.002 0 0 0-2.96 9.03c0 1.14-.017 1.573-.017 2.307a7 7 0 1 1 6.032-.037zM8 13H6V6h2v7zm0 3H6v-2h2v2z" fill-rule="evenodd"/></symbol><symbol id="ico-task" viewBox="0 0 29 26"><path fill-rule="evenodd" fill="currentColor" d="M3 6h23a3 3 0 0 1 3 3v14a3 3 0 0 1-3 3H3a3 3 0 0 1-3-3V9a3 3 0 0 1 3-3zm2 3h19a2 2 0 0 1 2 2v10a2 2 0 0 1-2 2H5a2 2 0 0 1-2-2V11a2 2 0 0 1 2-2zm5-9h9a2 2 0 0 1 2 2v3H8V2a2 2 0 0 1 2-2zm1.5 2h6A1.5 1.5 0 0 1 19 3.5V5h-9V3.5A1.5 1.5 0 0 1 11.5 2z"/></symbol><symbol id="ico-template" viewBox="0 0 12 14"><path fill="currentColor" d="M10 14H3a1 1 0 0 1-1-1V3a1 1 0 0 1 1-1h7a1 1 0 0 1 1 1v10a1 1 0 0 1-1 1zM9 5a1 1 0 0 0-1-1H5a1 1 0 0 0-1 1v6a1 1 0 0 0 1 1h3a1 1 0 0 0 1-1V5zM1 2v10a1 1 0 0 1-1-1V1a1 1 0 0 1 1-1h8a1 1 0 0 1 1 1H2a1 1 0 0 0-1 1z" fill-rule="evenodd"/></symbol><symbol id="ico-thx" viewBox="0 0 297.221 297.221"><path d="M283.762 32.835a6 6 0 0 0 1.432-8.363 5.998 5.998 0 0 0-8.363-1.432l-14.983 10.602a6 6 0 1 0 6.93 9.794l14.985-10.6zm-39.698-3.448c.695.262 1.41.386 2.11.386a6.001 6.001 0 0 0 5.617-3.89L258.25 8.7a5.999 5.999 0 1 0-11.232-4.222l-6.46 17.182a6.002 6.002 0 0 0 3.506 7.727zm47.159 26.223h-.124l-18.352.155c-3.313.067-5.944 2.605-5.877 5.918.067 3.27 2.74 5.928 5.998 5.928h.124l18.35-.312c3.314-.068 5.945-2.732 5.878-6.045-.066-3.27-2.74-5.642-5.997-5.642zM254.2 147.154c-3.073-2.433-6.71-4.09-10.557-4.867.254-.46.49-.928.715-1.403l2.408-2.408c9.274-9.275 10.248-23.874 2.264-33.96-3.77-4.762-9-7.926-14.812-9.107a26.2 26.2 0 0 0 1.117-2.34c6.316-9.148 6.213-21.444-.782-30.282a25.236 25.236 0 0 0-14.818-9.117c4.8-8.825 4.187-19.825-2.225-27.924-4.848-6.125-12.11-9.64-19.923-9.64-6.257 0-12.16 2.237-16.792 6.33a24.909 24.909 0 0 0-5.012-11.168c-4.85-6.125-12.11-9.638-19.924-9.64-6.79 0-13.165 2.636-17.948 7.42l-60.84 60.84-.232-8.12c-.107-13.83-11.392-25.05-25.247-25.05-13.604 0-24.73 10.815-25.23 24.298L14.22 149.322l-9.983 11.604c-5.983 6.957-5.582 17.48.915 23.962L19.987 199.7c-4.574 6.88-3.773 16.266 2.206 22.23l69.667 69.557a17.513 17.513 0 0 0 12.446 5.148 17.72 17.72 0 0 0 10.73-3.645l14.543-11.168c13.99-3.305 29.415-10.813 45.873-22.33 14.37-10.058 29.962-23.46 46.337-39.836l34.63-34.63a25.41 25.41 0 0 0 7.376-19.428 25.423 25.423 0 0 0-9.596-18.444zM188.124 32.01a13.339 13.339 0 0 1 9.462-3.904c3.915 0 7.83 1.695 10.515 5.086 4.257 5.377 3.51 13.18-1.338 18.028l-6.177 6.176c-.952.635-1.88 1.314-2.747 2.083a24.898 24.898 0 0 0-5.013-11.17 25.272 25.272 0 0 0-12.475-8.527l7.774-7.774zm-41.727-14.48c2.602-2.602 6.032-3.903 9.462-3.903 3.915 0 7.83 1.695 10.514 5.086 4.256 5.377 3.51 13.18-1.34 18.027l-70.916 70.19-.233-8.12c-.06-7.825-3.7-14.812-9.356-19.405l61.87-61.873zM13.624 176.392a5.616 5.616 0 0 1-.29-7.64l12.28-14.278a.062.062 0 0 0 .012-.026l12.72-92.483c0-7.286 5.96-13.247 13.247-13.247 7.286 0 13.248 5.96 13.248 13.247L65.187 74c-11.988 1.646-21.322 11.733-21.78 24.057L31.26 186.364l-3.532 4.108-14.104-14.08zm234.31.147l-34.63 34.63c-29.576 29.577-60.493 53.318-87.652 59.237-.825.18-1.6.528-2.27 1.043l-15.656 12.022a5.596 5.596 0 0 1-3.42 1.162 5.608 5.608 0 0 1-3.967-1.64l-69.672-69.56a5.615 5.615 0 0 1-.29-7.64l12.28-14.277a.068.068 0 0 0 .012-.026L55.39 99.01c0-7.286 5.96-13.248 13.247-13.248 7.286 0 13.247 5.962 13.247 13.248l.626 21.824c.104 3.626 3.087 5.987 6.19 5.987 1.515 0 3.06-.564 4.31-1.814l70.43-70.43c2.604-2.604 6.032-3.904 9.463-3.904 3.915 0 7.83 1.695 10.515 5.086 4.256 5.377 3.51 13.18-1.34 18.028l-48.518 48.518a6.446 6.446 0 0 0 0 9.12c1.275 1.276 2.946 1.914 4.617 1.914s3.343-.638 4.617-1.913l62.374-62.373c2.602-2.603 6.03-3.903 9.462-3.903 3.915 0 7.83 1.695 10.515 5.086 4.256 5.376 3.51 13.18-1.34 18.027l-62.08 62.08a6.538 6.538 0 0 0 0 9.247 6.417 6.417 0 0 0 4.555 1.887c1.648 0 3.297-.63 4.555-1.887l48.81-48.81c2.604-2.603 6.033-3.903 9.463-3.903 3.915 0 7.83 1.695 10.515 5.087 4.256 5.376 3.51 13.18-1.34 18.027l-48.35 48.35a6.693 6.693 0 0 0 0 9.46l.08.078a6.158 6.158 0 0 0 4.37 1.81c1.58 0 3.163-.603 4.37-1.81l29.973-29.974c2.7-2.7 6.317-4.13 9.92-4.13 2.868 0 5.727.905 8.108 2.79 6.36 5.034 6.754 14.403 1.18 19.975z" fill="#FFF"/></symbol><symbol id="ico-timer" viewBox="0 0 26 30"><path fill="currentColor" d="M25.964 17.25c0 7.042-5.812 12.75-12.982 12.75-7.17 0-12.98-5.708-12.98-12.75 0-3.758 1.664-7.125 4.297-9.46L3.22 6.47l1.193-.94L5.49 6.85a13.024 13.024 0 0 1 6.73-2.312V1.5H9.927c-.422 0-.764-.335-.764-.75S9.506 0 9.928 0h6.11c.42 0 .763.335.763.75s-.34.75-.763.75h-2.29v3.038c2.498.143 4.806.973 6.728 2.312l1.074-1.32 1.193.94-1.078 1.32c2.634 2.335 4.3 5.702 4.3 9.46zM12.982 6C6.666 6 1.528 11.047 1.528 17.25S6.666 28.5 12.982 28.5c6.316 0 11.455-5.047 11.455-11.25S19.297 6 12.982 6zm2.29 20.73v-1.55c3.522-.983 6.11-4.162 6.11-7.93 0-4.55-3.768-8.25-8.4-8.25V7.5c5.483 0 9.928 4.365 9.928 9.75 0 4.61-3.26 8.462-7.637 9.48zm0-9.48c0 .978-.638 1.802-1.526 2.112V27H12.22v-7.638c-.89-.31-1.53-1.134-1.53-2.112 0-1.243 1.027-2.25 2.292-2.25 1.266 0 2.29 1.007 2.29 2.25zm-3.053 0c0 .414.34.75.762.75.42 0 .764-.336.764-.75s-.343-.75-.764-.75a.758.758 0 0 0-.763.75z" fill-rule="evenodd"/></symbol><symbol id="ico-trash" viewBox="0 0 14 16"><path fill="currentColor" d="M0 2V1h5V0h3v1h5v1H0zm12 11a2 2 0 0 1-2 2H3a2 2 0 0 1-2-2V3h11v10zm-2-9H3v9h7V4zm-4 8H5V5h1v7zm2 0H7V5h1v7z" fill-rule="evenodd"/></symbol><symbol id="ico-turn" viewBox="0 0 12 11"><path fill="currentColor" d="M3.813 2.987a3.5 3.5 0 1 1-.04 4.985c-.022.028-2.43.028-2.41.056A5.504 5.504 0 0 0 6.25 11a5.5 5.5 0 1 0 0-11 5.5 5.5 0 0 0-4.905 3.01C1.35 3.003 0 3 0 3l2.187 2.47h1.125L5.532 3s-1.735-.007-1.72-.013z" fill-rule="evenodd"/></symbol><symbol id="ico-twitter" viewBox="0 0 17 14"><path fill="currentColor" d="M17.42 1.618c-.64.274-1.33.463-2.053.546A3.503 3.503 0 0 0 16.94.25a7.29 7.29 0 0 1-2.275.84A3.622 3.622 0 0 0 12.06 0c-1.972 0-3.573 1.547-3.573 3.454 0 .273.033.535.09.788-2.97-.145-5.602-1.518-7.367-3.61A3.323 3.323 0 0 0 .726 2.37c0 1.198.633 2.257 1.59 2.874A3.6 3.6 0 0 1 .7 4.812v.042c0 1.676 1.233 3.074 2.865 3.394a3.824 3.824 0 0 1-1.616.057c.456 1.372 1.774 2.37 3.338 2.4a7.338 7.338 0 0 1-4.44 1.476c-.287 0-.57-.014-.85-.045a10.362 10.362 0 0 0 5.48 1.552c6.57 0 10.165-5.265 10.165-9.83l-.01-.45a7.034 7.034 0 0 0 1.786-1.79z" fill-rule="evenodd"/></symbol><symbol id="ico-up" viewBox="0 0 14 16"><path fill="currentColor" d="M13.84 7.146l-.693.693c-.19.19-.5.19-.692 0L8.03 3.414V15.53a.5.5 0 0 1-.5.5h-1a.5.5 0 0 1-.5-.5V3.444L1.557 7.92a.502.502 0 0 1-.707 0l-.71-.71a.5.5 0 0 1 0-.707L6.506.14c.18-.18.458-.175.655-.02.16-.036.324-.022.447.1l6.233 6.234c.19.19.19.5 0 .692z"/></symbol><symbol id="ico-user" viewBox="0 0 14 14"><path fill="currentColor" d="M6.5 13a6.5 6.5 0 1 1 0-13 6.5 6.5 0 0 1 0 13zM9.26 2.97a2.993 2.993 0 0 1-4.836-.44C2.99 3.282 2 4.768 2 6.5a4.5 4.5 0 0 0 9 0c0-1.44-.688-2.706-1.74-3.53zM7 5h2v2H7V5zm1 5H5V9h3v1zM4 5h2v2H4V5z" fill-rule="evenodd"/></symbol><symbol id="ico-video" viewBox="0 0 74 74"><path fill="currentColor" d="M37 74C16.565 74 0 57.435 0 37S16.565 0 37 0s37 16.565 37 37-16.565 37-37 37zm0-70C18.775 4 4 18.775 4 37s14.775 33 33 33 33-14.775 33-33S55.225 4 37 4zm10.028 34.53S36.173 48 34 48s-3-2-3-2V28s.91-2 3-2 12.998 9.44 12.998 9.44.99.78.99 1.552c0 .77-.96 1.537-.96 1.537z" fill-rule="evenodd"/></symbol><symbol id="ico-vkontakte" viewBox="0 0 19 11"><path fill="currentColor" d="M18.65 9.746a1.06 1.06 0 0 0-.063-.123c-.325-.59-.947-1.314-1.864-2.173l-.02-.02-.01-.01-.01-.01h-.01c-.415-.4-.68-.67-.79-.806-.202-.263-.247-.53-.137-.797.08-.204.37-.633.88-1.29.266-.346.478-.625.633-.835C18.385 2.174 18.873 1.21 18.723.79l-.058-.098c-.04-.058-.14-.113-.303-.162-.162-.05-.37-.057-.624-.024l-2.813.02a.35.35 0 0 0-.195.004l-.128.03-.048.025-.04.03a.466.466 0 0 0-.107.102.67.67 0 0 0-.098.172 16.07 16.07 0 0 1-1.045 2.212c-.24.407-.462.76-.664 1.058-.202.298-.37.518-.507.66-.137.14-.26.253-.37.338-.112.085-.196.12-.255.108a4.468 4.468 0 0 1-.165-.04.655.655 0 0 1-.22-.24 1.11 1.11 0 0 1-.112-.384 4.303 4.303 0 0 1-.034-.398c-.004-.11-.003-.27.004-.472.006-.204.01-.342.01-.413 0-.25.005-.52.014-.813l.025-.693c.006-.17.01-.35.01-.542 0-.19-.012-.338-.035-.447a1.544 1.544 0 0 0-.102-.315.537.537 0 0 0-.2-.235 1.15 1.15 0 0 0-.327-.134A6.666 6.666 0 0 0 9.02.014C7.81 0 7.034.08 6.688.25c-.136.072-.26.17-.37.294-.117.145-.134.224-.05.237.39.06.667.2.83.424l.06.118c.045.085.09.236.136.452.045.217.074.456.087.718.033.48.033.89 0 1.23-.032.34-.063.606-.092.796a1.626 1.626 0 0 1-.25.68.191.191 0 0 1-.048.05.745.745 0 0 1-.264.05c-.09 0-.2-.047-.332-.14a2.265 2.265 0 0 1-.405-.378 5.152 5.152 0 0 1-.474-.675 11.75 11.75 0 0 1-.547-1.023l-.157-.285c-.098-.183-.23-.45-.4-.802-.17-.35-.32-.69-.45-1.018a.644.644 0 0 0-.234-.315l-.05-.03A1.006 1.006 0 0 0 3.3.484L.625.505c-.273 0-.46.062-.557.187l-.04.06A.325.325 0 0 0 0 .907c0 .073.02.16.06.266.39.924.813 1.816 1.273 2.675.46.86.857 1.55 1.195 2.075.34.524.683 1.02 1.035 1.485.352.465.585.764.698.895.115.132.205.23.27.295l.244.236c.156.157.385.346.688.565.303.22.638.438 1.005.65.37.214.796.388 1.285.522.488.135.963.19 1.425.162H10.3c.227-.02.4-.092.517-.216l.04-.05a.67.67 0 0 0 .072-.18c.022-.083.033-.173.033-.272a3.338 3.338 0 0 1 .063-.762c.05-.226.105-.396.167-.51.062-.116.13-.213.21-.29a.807.807 0 0 1 .166-.144.581.581 0 0 1 .077-.035c.156-.052.34 0 .55.153.213.155.41.344.597.57.185.227.408.48.668.763.26.283.49.493.683.63l.196.118c.13.08.3.15.51.217.207.066.39.082.545.05l2.5-.04c.247 0 .44-.04.575-.123.137-.082.218-.173.244-.27.027-.1.028-.21.006-.335a1.218 1.218 0 0 0-.07-.26z" fill-rule="evenodd"/></symbol><symbol id="ico-wallet-money" viewBox="0 0 41 43"><path fill="currentColor" d="M9.192 13.255h-1.94L8.558 4.02a2.932 2.932 0 0 1 3.313-2.497l.15.02c-.054.15-.106.295-.143.45L9.192 13.254zm7.73-11.74c.148-.426.37-.805.63-1.158l-.75-.18a2.903 2.903 0 0 0-3.5 2.157l-2.604 10.92h2.145l4.08-11.74zm2.49 3.984a3.656 3.656 0 0 0 4.663-2.26l4.148 1.452a3.68 3.68 0 0 0 2.25 4.682l-1.347 3.88h2.326l2.06-5.93a2.943 2.943 0 0 0-1.8-3.744L22.034.19a2.926 2.926 0 0 0-3.73 1.808l-3.91 11.257h2.325L19.412 5.5zm4.81 4.02c-2.293-.803-4.69.1-5.355 2.018-.196.562-.203 1.147-.082 1.717h8.527c-.077-1.565-1.265-3.096-3.09-3.736zM20.5 28.69c0-3.648 2.956-6.615 6.59-6.615h10.98v-1.47c0-3.248-2.62-5.88-5.856-5.88H5.857C2.623 14.725 0 17.357 0 20.605v16.17c0 3.248 2.623 5.88 5.857 5.88h26.357c3.235 0 5.857-2.632 5.857-5.88v-1.47H27.09c-3.634 0-6.59-2.967-6.59-6.615zm20.5 0c0 2.843-.732 5.146-2.93 5.146H27.09c-2.832 0-5.126-2.303-5.126-5.146 0-2.842 2.294-5.145 5.125-5.145h10.98c2.198 0 2.93 2.303 2.93 5.145zm-11.714 0c0-1.217-.984-2.205-2.197-2.205s-2.197.988-2.197 2.205c0 1.218.984 2.206 2.196 2.206a2.202 2.202 0 0 0 2.196-2.206z" fill-rule="evenodd"/></symbol><symbol id="ico-wallet-stroke" viewBox="0 0 30 30"><path fill="currentColor" d="M28.5 30h-27A1.5 1.5 0 0 1 0 28.5V9c0-.83.672-1.5 1.5-1.5h27c.83 0 1.5.67 1.5 1.5v19.5c0 .83-.67 1.5-1.5 1.5zm0-15H18v7.5h10.5V15zm0 9H18a1.5 1.5 0 0 1-1.5-1.5V15a1.5 1.5 0 0 1 1.5-1.5h10.5V9h-27v19.5h27V24zm-6.75-7.5a2.25 2.25 0 1 1 0 4.5 2.25 2.25 0 0 1 0-4.5zm0 3c.413 0 .75-.337.75-.75s-.337-.75-.75-.75-.75.337-.75.75.337.75.75.75zm.2-17.45L15.11 6h-3L22.5 0l3.464 6h-1.732l-2.28-3.95zM12 2.12L8.12 6H6l6-6 2.745 2.745-1.345.777-1.4-1.4z" fill-rule="evenodd"/></symbol><symbol id="ico-wallet" viewBox="0 0 36 30"><path fill="currentColor" d="M34 30H2a2 2 0 0 1-2-2V2a2 2 0 0 1 2-2h32a2 2 0 0 1 2 2v8h-7.5a5.5 5.5 0 1 0 0 11H36v7a2 2 0 0 1-2 2zm-9-14.5c0-1.933 1.705-3.5 3.808-3.5H36v7h-7.192C26.705 19 25 17.433 25 15.5zm5 0a1.5 1.5 0 1 0-3.001.001A1.5 1.5 0 0 0 30 15.5z" fill-rule="evenodd"/></symbol><symbol id="ico-watch" viewBox="0 0 16 10"><path fill="currentColor" d="M8 0C4.51 0 1.486 2.032 0 5c1.486 2.968 4.51 5 8 5s6.514-2.032 8-5c-1.486-2.968-4.51-5-8-5zm3.945 2.652c.94.6 1.736 1.403 2.334 2.348a7.608 7.608 0 0 1-2.336 2.348 7.32 7.32 0 0 1-7.888 0A7.626 7.626 0 0 1 1.72 5a7.605 7.605 0 0 1 2.521-2.462 4.003 4.003 0 0 0 3.76 5.368 3.999 3.999 0 0 0 3.76-5.368l.185.114zM8 3.406a1.5 1.5 0 1 1-2.999.001A1.5 1.5 0 0 1 8 3.406z" fill-rule="evenodd"/></symbol><symbol id="ico-web" viewBox="0 0 44 46"><path fill="currentColor" d="M42.69 23l-2.79 4.488.388 4.955-1.102.66-.197.325-.172-.105-2.982 1.784-2.5 6.18-.758-.036-.008.006-.003-.006-5.656-.272-4.91 3.65V45h-1v-.393l-4.444-3.493-4.954.837-.167.296-.364-.206-.184.032-.087-.185-.235-.133.094-.166-2.313-4.92-5.138-2.865-.2.125-.217-.357-.02-.01v-.023l-.282-.465.304-.19.17-5.077L.278 23H0v-1h.276l2.63-4.77.06-6.138 4.502-3.268L10.46 3.19l5.853-.653L21 .245V0h1v.33l4.39 2.892 5.822.157.353-.626.87.492-.347.615 2.125 4.41 4.85 1.873-.45 6.885L42.692 22H43v1h-.31zm-4.36 8.406l-.348-4.44L40.446 23h-7.63l-1.366 2.197.206 2.63 6.296 3.804.377-.224zM30.67 16.59l-7.37 4.62-.446.79h8.973l-1.367-2.208.21-3.2zM21 25.29l-3.798 6.733 1.852-.313L21 33.24v-7.95zm1-4.444l.555-.348 4.208-7.46-2.844-.077L22 11.698v9.15zm2.33-1.46l5.385-3.375-1.43-.55-.8-1.664-3.154 5.59zM31.83 23h-8.163l7.123 4.303-.183-2.335L31.828 23zm-8.306 1.082l4.14 6.96.93-2.304 1.326-.792-6.396-3.864zm10.818 9.71l2.64-1.58-6.253-3.777-1.476.882-1.058 2.618L32.3 38.84l2.043-5.05zM22 42.28l4.347-3.23 5.056.243-3.958-6.656-3.02-.146L22 34.295v7.986zm2.178-10.637l2.755.132-4.922-8.278-.01.02v9.744l2.178-1.617zm-7.106 7.528L21 42.26v-7.987l-2.173-1.708-2.134.36L12.76 39.9l4.312-.73zM9.72 35.19l2.066 4.398 3.836-6.8-1.234-2.628-2.84-1.583-6.445 4.038L9.72 35.19zm2.604-17.873l-.025 2.575L11.137 22h8.938l-7.752-4.683zm8.3 3.845l-4.743-7.975-1.323 2.052-1.698 1.23 7.763 4.692zM11.14 23l1.188 2.125-.06 1.82L18.563 23H11.14zm-6.243 4.25l-.146 4.406 6.657-4.17.07-2.118L10.154 23h-7.63l2.373 4.25zm-.052-9.47L2.52 22h7.63l1.295-2.35.028-2.848-6.58-3.975-.048 4.952zm4.088-8.424l-3.568 2.588L12 15.952l1.913-1.387 1.45-2.248-4-6.727-2.43 3.766zM21 2.592L16.854 4.62l-4.6.512 4.067 6.838 2.375-.264L21 10.578V2.592zm0 9.02l-2.066 1.01-2.087.233L21 19.84v-8.228zM20.446 23l-8.065 5.054 2.612 1.456 1.127 2.398L21 23.255V23h-.554zM25.88 5.234L22 2.677v7.986l2.144 1.413 3.115.084 3.827-6.786-5.208-.14zm7.902 4.52l-1.85-3.84-3.94 6.98.923 1.91 1.685.652 6.842-4.288-3.66-1.414zm3.942 7.845l.37-5.66-6.572 4.118-.228 3.483L32.816 22h7.63l-2.722-4.4z" fill-rule="evenodd"/></symbol><symbol id="ico-wrap-arrow" viewBox="0 0 10 5"><path fill="currentColor" d="M5 0L0 5h2.688L5 2.625 7.344 5H10L5 0z" fill-rule="evenodd"/></symbol></svg>